Love for All and Sharing is the first step to solving all the problems of humanity.

Website I want to share. 
               
   http://www.scenetime.com
 
 
  Credit to EVERYONE for sharing and seeding back
 especially to SCENETIME.COM where i get all my 
 downloads.


 support www.scenetime.com to grow faster.

                             
                                                            
                                                   

.                 ..................................NFO:....................................*******************************************************************************
                     Shockwave.2006.DVDRip.AC3.X264-BARC0DE
*******************************************************************************

-------------------------------------------------------------------------------
                              General Information
-------------------------------------------------------------------------------
Type.................: Movie
Name.................: A.I. Assault (Aka.Shockwave)
Movie Information....: http://www.imdb.com/title/tt0468547/
Genre................: Action | Sci-Fi 

-------------------------------------------------------------------------------
                                    PLOT
-------------------------------------------------------------------------------
When a plane carrying a pair of top secret military robots crashes on a deserted 
Pacific island, a team of Navy seals must find them and turn them off as soon as 
possible for the longer they are activated, the smarter they become.

-------------------------------------------------------------------------------
                                    CAST
-------------------------------------------------------------------------------
Joe Lando	... 	Major Richard Tunney
Lisa LoCicero	... 	Susan Foster
Joshua Cox	... 	Jack McKenna (as Josh Coxx)
Blake Gibbons	... 	Rork
Hudson Leick	... 	Tiffany Smith
Michael Dorn	... 	General Buskirk
Bill Mumy	... 	Major Heath
Alexandra Paul	... 	Marlon Adams
Robert Picardo	... 	Doctor John Foster
George Takei	... 	Major Lane
Tim Thomerson	... 	Admiral Harrison
Roark Critchlow	... 	Daryl Cage
Jay Richardson	... 	Dr. Trent
-------------------------------------------------------------------------------
                                    MEDiA iNFO
-------------------------------------------------------------------------------

General
Complete name                    : Shockwave.2006.DVDRip.AC3.X264-BARC0DE.mkv
Format                           : Matroska
File size                        : 1.20 GiB
Duration                         : 1h 33mn
Overall bit rate                 : 1 828 Kbps

Video
ID                               : 1
Format                           : AVC
Format/Info                      : Advanced Video Codec
Format profile                   : High@L3.0
Format settings, CABAC           : Yes
Format settings, ReFrames        : 3 frames
Muxing mode                      : Container profile=Unknown@3.0
Codec ID                         : V_MPEG4/ISO/AVC
Duration                         : 1h 33mn
Bit rate                         : 1 408 Kbps
Nominal bit rate                 : 1 844 Kbps
Width                            : 720 pixels
Height                           : 400 pixels
Display aspect ratio             : 16:9
Frame rate                       : 29.970 fps
Color space                      : YUV
Chroma subsampling               : 4:2:0
Bit depth                        : 8 bits
Scan type                        : Progressive
Bits/(Pixel*Frame)               : 0.163
Stream size                      : 945 MiB (77%)
Writing library                  : x264 core 79


Audio
ID                               : 2
Format                           : AC-3
Format/Info                      : Audio Coding 3
Mode extension                   : CM (complete main)
Codec ID                         : A_AC3
Duration                         : 1h 33mn
Bit rate mode                    : Constant
Bit rate                         : 384 Kbps
Channel(s)                       : 6 channels
Channel positions                : Front: L C R, Side: L R, LFE
Sampling rate                    : 48.0 KHz
Stream size                      : 258 MiB (21%)
Language                         : English

Menu
00:00:00.000                     : Chapter 1
00:10:30.529                     : Chapter 2
00:20:06.822                     : Chapter 3
00:28:21.316                     : Chapter 4
00:31:06.097                     : Chapter 5
00:39:50.421                     : Chapter 6
00:43:34.845                     : Chapter 7
00:51:41.715                     : Chapter 8
01:04:54.957                     : Chapter 9
01:15:07.119                     : Chapter 10
01:20:06.418                     : Chapter 11
01:29:43.111                     : Chapter 12
01:33:41.682                     : Chapter 13